<svg width="27" height="39" viewBox="0 0 27 39" fill="none" xmlns="http://www.w3.org/2000/svg">
<circle cx="13.5" cy="16.5" r="8.5" fill="white" fill-opacity="0.54"/>
<path fill-rule="evenodd" clip-rule="evenodd" d="M26.5747 16.2874C26.5747 17.2563 26.471 18.2009 26.2741 19.1109C25.9307 22.8432 18.1581 33.1372 14.8048 37.4243C14.0257 38.4204 12.5415 38.4229 11.758 37.4303C9.21136 34.204 4.1358 27.5462 1.64279 22.6923C1.38619 22.2268 1.15669 21.7442 0.956428 21.2468C0.521399 20.2353 0.249081 19.3466 0.200571 18.6431C0.199187 18.623 0.198197 18.603 0.1976 18.5831C0.0677124 17.8374 0 17.0703 0 16.2874C0 8.94896 5.94896 3 13.2874 3C20.6258 3 26.5747 8.94896 26.5747 16.2874ZM13.2873 23.3538C17.19 23.3538 20.3538 20.1901 20.3538 16.2874C20.3538 12.3847 17.19 9.22093 13.2873 9.22093C9.38462 9.22093 6.22087 12.3847 6.22087 16.2874C6.22087 20.1901 9.38462 23.3538 13.2873 23.3538Z" fill="#2D64C4" fill-opacity="0.83"/>
</svg>
