<svg width="27" height="36" viewBox="0 0 27 36" fill="none" xmlns="http://www.w3.org/2000/svg">
<path fill-rule="evenodd" clip-rule="evenodd" d="M26.5747 13.2874C26.5747 14.2563 26.471 15.2009 26.2741 16.1109C25.9307 19.8432 18.1581 30.1372 14.8048 34.4243C14.0257 35.4204 12.5415 35.4229 11.758 34.4303C9.21136 31.204 4.1358 24.5462 1.64279 19.6923C1.38619 19.2268 1.15669 18.7442 0.956428 18.2468C0.521399 17.2353 0.249081 16.3466 0.200571 15.6431C0.199187 15.623 0.198197 15.603 0.1976 15.5831C0.0677124 14.8374 0 14.0703 0 13.2874C0 5.94896 5.94896 0 13.2874 0C20.6258 0 26.5747 5.94896 26.5747 13.2874ZM13.2873 20.3538C17.19 20.3538 20.3538 17.1901 20.3538 13.2874C20.3538 9.38469 17.19 6.22093 13.2873 6.22093C9.38462 6.22093 6.22087 9.38469 6.22087 13.2874C6.22087 17.1901 9.38462 20.3538 13.2873 20.3538Z" fill="#2D64C4"/>
</svg>
